C:/Users/user/Desktop/ffmpeg-20200809-6e951d0-win64-static/bin/ffmpeg.exe -hide_banner -y -y -r 24 -start_number 0 -start_number_range 1 -i F:/Krita/New folder/frame%04d.png -i F:/Krita/New folder/KritaTempPalettegen_%06d.png -lavfi [0:v][1:v]paletteuse=dither=sierra2_4a:diff_mode=none -f gif -loop 0 -gifflags +transdiff F:/Krita/New folder/2.gif
=====================================================
Input #0, image2, from 'F:/Krita/New folder/frame%04d.png':
  Duration: 00:00:02.44, start: 0.000000, bitrate: N/A
    Stream #0:0: Video: png, rgba(pc), 1920x1080 [SAR 11811:11811 DAR 16:9], 25 fps, 25 tbr, 25 tbn, 25 tbc
Input #1, image2, from 'F:/Krita/New folder/KritaTempPalettegen_%06d.png':
  Duration: 00:00:00.04, start: 0.000000, bitrate: N/A
    Stream #1:0: Video: png, rgba(pc), 16x16 [SAR 1:1 DAR 1:1], 25 tbr, 25 tbn, 25 tbc
Stream mapping:
  Stream #0:0 (png) -> paletteuse:default
  Stream #1:0 (png) -> paletteuse:palette
  paletteuse -> Stream #0:0 (gif)
Press [q] to stop, [?] for help
[image2 @ 000002323fbde9c0] Thread message queue blocking; consider raising the thread_queue_size option (current value: 8)
Output #0, gif, to 'F:/Krita/New folder/2.gif':
  Metadata:
    encoder         : Lavf58.50.100
    Stream #0:0: Video: gif, pal8, 1920x1080 [SAR 1:1 DAR 16:9], q=2-31, 200 kb/s, 24 fps, 100 tbn, 24 tbc (default)
    Metadata:
      encoder         : Lavc58.100.100 gif
frame=    2 fps=0.0 q=-0.0 size=      94kB time=00:00:00.05 bitrate=15469.8kbits/s speed=0.0863x    frame=    6 fps=5.5 q=-0.0 size=     116kB time=00:00:00.22 bitrate=4302.6kbits/s speed=0.203x    frame=    9 fps=5.6 q=-0.0 size=     127kB time=00:00:00.34 bitrate=3058.6kbits/s speed=0.21x    frame=   12 fps=5.1 q=-0.0 size=     149kB time=00:00:00.47 bitrate=2598.8kbits/s speed= 0.2x    frame=   15 fps=5.2 q=-0.0 size=     160kB time=00:00:00.59 bitrate=2220.9kbits/s speed=0.206x    frame=   18 fps=5.4 q=-0.0 size=     181kB time=00:00:00.72 bitrate=2057.5kbits/s speed=0.214x    frame=   21 fps=5.4 q=-0.0 size=     191kB time=00:00:00.84 bitrate=1858.7kbits/s speed=0.214x    frame=   24 fps=5.3 q=-0.0 size=     209kB time=00:00:00.97 bitrate=1767.5kbits/s speed=0.215x    frame=   27 fps=5.3 q=-0.0 size=     219kB time=00:00:01.09 bitrate=1649.5kbits/s speed=0.214x    frame=   30 fps=5.3 q=-0.0 size=     242kB time=00:00:01.22 bitrate=1627.7kbits/s speed=0.215x    frame=   33 fps=5.2 q=-0.0 size=     254kB time=00:00:01.34 bitrate=1552.0kbits/s speed=0.213x    frame=   36 fps=5.2 q=-0.0 size=     256kB time=00:00:01.47 bitrate=1426.6kbits/s speed=0.213x    frame=   39 fps=5.2 q=-0.0 size=     256kB time=00:00:01.59 bitrate=1319.0kbits/s speed=0.213x    frame=   43 fps=5.3 q=-0.0 size=     256kB time=00:00:01.76 bitrate=1191.6kbits/s speed=0.217x    frame=   47 fps=5.4 q=-0.0 size=     256kB time=00:00:01.93 bitrate=1086.6kbits/s speed=0.22x    frame=   51 fps=5.4 q=-0.0 size=     256kB time=00:00:02.09 bitrate=1003.4kbits/s speed=0.223x    frame=   55 fps=5.5 q=-0.0 size=     256kB time=00:00:02.26 bitrate= 927.9kbits/s speed=0.226x    frame=   59 fps=5.6 q=-0.0 size=     256kB time=00:00:02.43 bitrate= 863.0kbits/s speed=0.229x    frame=   61 fps=5.5 q=-0.0 Lsize=     429kB time=00:00:02.51 bitrate=1399.4kbits/s speed=0.226x    
video:429kB audio:0kB subtitle:0kB other streams:0kB global headers:0kB muxing overhead: 0.004555%
